<svg id="svg" xmlns="http://www.w3.org/2000/svg" xmlns:xlink="http://www.w3.org/1999/xlink" width="400" height="542" viewBox="0, 0, 400,542" version="1.1"><g id="svgg"><path id="path0" d="M209.800 16.447 C 205.922 17.011,201.899 18.049,200.477 18.852 C 199.750 19.264,198.653 19.600,198.041 19.600 C 197.197 19.600,196.181 20.325,193.839 22.600 C 190.388 25.952,188.995 26.339,185.200 25.000 C 182.167 23.930,172.802 24.462,168.784 25.933 C 167.583 26.373,165.160 27.268,163.400 27.922 C 161.640 28.576,159.570 29.324,158.800 29.584 C 156.151 30.477,154.992 31.309,151.875 34.550 C 147.908 38.675,146.353 40.897,145.960 43.002 C 144.812 49.147,141.096 50.998,128.000 51.946 C 114.822 52.900,106.844 60.897,105.799 74.200 C 105.373 79.615,104.881 80.017,100.715 78.358 C 97.155 76.940,90.990 77.760,86.200 80.287 C 85.540 80.636,84.506 81.176,83.903 81.488 C 81.429 82.768,80.120 85.728,79.809 90.748 C 79.518 95.431,79.075 96.805,76.845 99.937 C 76.380 100.590,76.000 101.369,76.000 101.669 C 76.000 101.969,75.550 102.877,75.000 103.686 C 74.450 104.495,74.000 105.323,74.000 105.525 C 74.000 105.727,73.622 106.372,73.161 106.959 C 72.256 108.109,71.529 112.205,71.572 115.909 C 71.595 117.897,71.952 119.000,73.469 121.769 C 74.166 123.040,73.745 124.344,72.737 124.036 C 70.663 123.401,66.913 123.597,65.400 124.419 C 64.520 124.897,63.260 125.563,62.600 125.899 C 59.824 127.311,58.488 129.111,57.956 132.155 C 57.683 133.720,57.116 135.810,56.695 136.800 C 56.002 138.433,55.917 139.939,55.772 153.059 C 55.663 162.877,55.461 167.884,55.142 168.659 C 54.878 169.297,54.554 173.147,54.404 177.400 C 54.144 184.772,54.104 185.047,53.068 186.556 C 52.481 187.412,52.000 188.293,52.000 188.514 C 52.000 188.735,51.626 189.295,51.170 189.758 C 49.899 191.046,48.356 193.583,47.494 195.800 C 45.523 200.868,45.522 200.875,45.520 207.000 C 45.517 213.016,45.490 213.215,43.228 223.600 C 42.389 227.448,43.446 235.806,45.188 239.107 C 46.880 242.315,44.599 248.924,41.863 248.741 C 41.169 248.694,39.250 248.710,37.600 248.775 L 34.600 248.894 36.800 249.273 C 38.010 249.482,39.900 249.569,41.000 249.467 C 45.041 249.092,46.158 250.845,46.190 257.619 C 46.199 259.693,46.064 260.011,44.131 262.471 C 38.587 269.526,38.447 276.986,43.765 281.970 C 44.794 282.934,45.141 284.662,44.458 285.420 C 43.187 286.831,42.769 290.260,42.432 302.038 C 42.089 313.990,42.082 314.060,41.011 316.125 C 37.568 322.757,37.639 337.546,41.125 339.951 C 45.446 342.932,47.023 347.771,44.840 351.353 C 44.170 352.451,44.062 353.609,43.934 361.025 C 43.817 367.870,43.671 369.634,43.154 370.425 C 42.156 371.958,40.123 379.060,39.612 382.800 C 39.034 387.035,39.422 388.960,41.318 391.274 C 42.830 393.120,42.736 394.482,40.958 396.446 C 38.790 398.842,37.821 417.031,39.589 422.168 C 41.680 428.244,44.385 432.158,48.400 434.916 C 48.950 435.293,50.298 436.248,51.395 437.037 L 53.391 438.471 60.716 438.279 C 66.476 438.128,68.187 437.958,68.721 437.483 C 69.094 437.151,70.030 436.585,70.800 436.225 C 71.570 435.866,72.740 435.272,73.400 434.907 C 75.814 433.572,104.076 434.155,107.634 435.614 C 109.797 436.500,109.656 436.496,126.600 436.267 C 142.299 436.054,142.463 436.080,142.169 438.727 C 141.782 442.208,141.609 442.862,140.804 443.886 C 140.346 444.468,140.000 445.512,140.000 446.308 C 140.000 447.278,139.701 447.986,139.026 448.611 C 138.482 449.115,137.937 450.194,137.791 451.057 C 137.419 453.252,135.979 457.098,134.533 459.753 C 133.976 460.777,133.971 461.046,134.493 462.148 L 135.081 463.390 135.797 461.995 C 136.191 461.228,136.827 460.197,137.210 459.705 C 137.594 459.212,138.024 458.032,138.167 457.083 C 138.309 456.133,138.770 455.061,139.190 454.701 C 139.707 454.259,140.043 453.266,140.227 451.640 C 140.406 450.058,140.757 449.001,141.250 448.555 C 141.758 448.095,142.000 447.331,142.000 446.184 C 142.000 444.821,142.194 444.365,143.000 443.837 C 143.678 443.392,144.000 442.816,144.000 442.045 C 144.000 441.419,144.349 440.464,144.775 439.922 C 145.202 439.380,145.669 438.463,145.815 437.883 C 145.960 437.303,146.467 436.697,146.940 436.536 C 148.162 436.120,167.753 436.359,170.427 436.823 C 171.652 437.035,173.992 437.175,175.627 437.133 C 179.888 437.023,186.612 438.294,188.013 439.473 C 189.514 440.735,192.065 441.004,194.800 440.190 C 196.010 439.829,198.440 439.174,200.200 438.734 C 201.960 438.293,204.254 437.671,205.297 437.351 C 206.693 436.923,207.405 436.882,207.990 437.195 C 208.428 437.429,210.274 437.803,212.093 438.025 C 214.225 438.286,215.786 438.709,216.485 439.216 C 218.993 441.033,224.460 441.175,226.169 439.468 C 227.321 438.318,233.043 437.193,237.800 437.181 C 243.386 437.168,260.075 436.457,260.734 436.204 C 264.571 434.731,269.129 437.283,269.784 441.270 C 269.916 442.079,270.466 443.159,271.006 443.670 C 271.684 444.313,271.988 445.038,271.993 446.022 C 271.997 446.903,272.381 447.961,273.000 448.800 C 273.731 449.791,274.000 450.659,274.000 452.029 C 274.000 453.177,274.224 454.088,274.580 454.383 C 274.898 454.648,275.363 455.525,275.613 456.332 C 276.501 459.206,278.493 462.800,279.198 462.800 C 280.503 462.800,280.249 459.849,278.820 458.420 C 278.327 457.927,278.000 457.078,278.000 456.289 C 278.000 455.568,277.754 454.623,277.453 454.189 C 277.152 453.755,276.605 452.356,276.237 451.081 C 275.868 449.806,275.323 448.669,275.025 448.554 C 274.727 448.440,274.357 447.508,274.203 446.482 C 274.050 445.457,273.578 443.942,273.156 443.114 C 271.945 440.740,271.686 436.996,272.696 436.456 C 273.519 436.015,295.251 436.146,300.260 436.621 C 302.742 436.857,304.822 436.435,308.106 435.029 C 310.640 433.944,340.708 434.000,341.592 435.091 C 343.349 437.261,346.111 438.017,353.093 438.240 C 361.120 438.497,361.538 438.411,364.265 435.941 C 365.466 434.854,367.298 433.353,368.338 432.607 C 370.716 430.898,374.044 424.597,374.889 420.200 C 376.099 413.910,374.843 397.952,372.992 396.089 C 371.319 394.405,371.522 392.576,373.639 390.275 C 375.069 388.721,374.830 381.903,373.163 376.683 C 372.743 375.370,372.400 374.112,372.400 373.886 C 372.400 373.661,371.956 372.538,371.413 371.390 C 370.480 369.419,370.418 368.850,370.299 361.152 C 370.180 353.478,370.118 352.899,369.233 351.275 C 367.851 348.738,369.338 340.800,371.196 340.800 C 371.813 340.800,373.572 338.624,374.590 336.600 C 376.445 332.914,375.789 322.019,373.409 317.000 C 371.988 314.002,371.456 307.037,371.532 292.400 C 371.538 291.226,370.269 286.451,369.638 285.271 C 368.919 283.928,369.132 283.000,370.370 282.086 C 375.493 278.298,375.282 268.380,369.953 262.524 C 367.839 260.201,367.589 258.998,368.153 253.885 C 368.593 249.897,369.274 249.422,374.400 249.530 C 379.667 249.640,381.579 249.024,377.166 248.639 C 375.277 248.474,373.108 248.456,372.345 248.599 C 369.322 249.166,366.993 241.188,369.360 238.375 C 370.209 237.366,370.402 236.721,370.410 234.869 C 370.415 233.621,370.585 231.883,370.789 231.006 C 371.283 228.873,370.601 221.331,369.612 218.000 C 368.994 215.920,368.810 213.827,368.693 207.528 C 368.549 199.747,368.535 199.637,367.474 198.106 C 366.883 197.254,366.400 196.406,366.400 196.220 C 366.400 195.551,363.613 190.109,363.017 189.614 C 362.680 189.335,361.832 188.105,361.132 186.881 L 359.859 184.656 359.764 177.628 C 359.700 172.913,359.496 170.205,359.145 169.400 C 358.759 168.514,358.567 164.278,358.411 153.200 C 358.231 140.407,358.105 138.023,357.552 137.000 C 357.195 136.340,356.707 134.663,356.467 133.273 C 355.370 126.924,348.155 122.235,342.138 123.960 C 339.860 124.614,339.414 123.375,341.057 120.956 C 342.391 118.991,342.949 114.857,342.346 111.400 C 341.917 108.940,339.821 104.000,339.207 104.000 C 339.019 104.000,338.566 103.102,338.202 102.005 C 337.837 100.907,337.375 99.908,337.174 99.784 C 335.589 98.804,334.609 95.730,334.375 91.005 C 334.048 84.388,331.963 81.396,326.541 79.763 C 325.629 79.488,324.359 78.992,323.719 78.662 C 321.220 77.369,312.266 77.641,311.735 79.025 C 310.741 81.615,308.627 78.372,308.365 73.855 C 308.187 70.778,307.921 69.416,307.265 68.206 C 306.789 67.329,306.400 66.239,306.400 65.784 C 306.400 65.328,305.950 64.345,305.400 63.600 C 304.850 62.855,304.400 61.982,304.400 61.661 C 304.400 58.141,293.130 52.000,286.670 52.000 C 284.869 52.000,282.766 51.818,281.997 51.596 C 281.229 51.373,278.985 51.007,277.011 50.782 C 273.070 50.332,272.710 50.124,269.983 46.711 C 269.036 45.526,268.367 44.184,268.186 43.111 C 268.028 42.170,267.516 40.914,267.049 40.321 C 266.582 39.727,265.124 37.872,263.808 36.198 C 260.899 32.498,258.125 30.342,255.200 29.507 C 253.990 29.162,251.740 28.396,250.200 27.804 C 242.403 24.811,239.069 24.209,232.062 24.527 L 226.501 24.780 223.254 21.490 C 218.409 16.580,215.746 15.582,209.800 16.447 M216.100 22.417 C 217.942 23.273,217.759 28.690,215.789 31.616 C 215.013 32.769,214.198 34.516,213.978 35.497 C 213.517 37.557,213.564 51.468,214.040 53.579 C 214.499 55.614,214.107 55.794,209.080 55.851 L 204.600 55.902 202.478 54.321 C 201.311 53.452,200.157 52.304,199.914 51.770 C 199.671 51.237,199.342 50.800,199.184 50.800 C 198.346 50.800,197.816 47.963,197.914 44.000 C 198.091 36.869,198.102 35.331,198.006 31.264 C 197.857 24.972,200.345 22.805,208.461 22.160 C 210.297 22.014,212.055 21.759,212.366 21.594 C 212.963 21.278,214.269 21.566,216.100 22.417 M184.471 29.833 C 185.827 31.024,185.852 31.096,185.192 31.910 C 184.817 32.374,184.383 33.707,184.228 34.872 C 183.634 39.352,182.205 40.693,178.803 39.963 C 176.953 39.567,173.200 36.376,173.200 35.200 C 173.200 35.028,172.705 34.749,172.100 34.582 C 168.787 33.663,164.281 36.509,162.215 40.825 C 161.853 41.581,161.219 42.807,160.805 43.548 C 160.202 44.631,160.146 45.045,160.523 45.648 C 161.528 47.258,164.000 45.925,164.000 43.773 C 164.000 43.306,164.379 42.581,164.843 42.162 C 165.307 41.743,165.983 40.770,166.344 40.000 C 167.580 37.371,172.503 37.866,173.984 40.769 C 174.851 42.469,175.799 42.914,179.689 43.447 C 183.592 43.982,188.594 39.194,188.143 35.356 C 187.852 32.877,188.330 32.000,189.973 32.000 C 192.549 32.000,193.413 34.369,193.818 42.547 C 194.072 47.683,194.241 48.733,195.056 50.267 C 196.209 52.435,196.228 53.137,195.192 55.125 C 194.748 55.978,194.132 57.883,193.823 59.360 C 192.825 64.126,192.398 64.375,185.200 64.373 C 174.711 64.370,170.546 63.267,164.839 58.980 C 162.617 57.311,160.622 56.167,159.200 55.746 C 156.109 54.831,154.062 53.129,153.757 51.221 C 153.367 48.785,151.766 47.937,149.500 48.967 C 148.009 49.645,148.801 47.551,150.858 45.376 C 152.758 43.367,155.200 42.326,155.200 43.525 C 155.200 43.703,155.590 44.267,156.066 44.779 C 157.235 46.033,158.059 45.003,157.966 42.403 C 157.922 41.181,158.238 39.891,158.947 38.400 C 159.522 37.190,159.994 35.907,159.996 35.549 C 160.001 34.673,160.598 34.254,163.213 33.291 C 164.430 32.843,166.571 31.894,167.971 31.183 C 171.776 29.249,173.083 29.047,174.247 30.210 L 175.195 31.159 175.442 30.174 C 176.018 27.879,181.988 27.653,184.471 29.833 M237.580 28.789 C 237.981 29.004,238.427 29.651,238.572 30.229 L 238.835 31.279 239.789 30.250 C 240.896 29.055,241.789 29.219,247.000 31.573 C 248.540 32.268,250.160 32.998,250.600 33.194 C 251.040 33.389,251.850 33.673,252.400 33.824 C 253.920 34.241,254.400 34.783,254.400 36.086 C 254.400 36.739,254.742 37.708,255.160 38.240 C 255.648 38.860,256.020 40.206,256.200 42.004 C 256.526 45.246,256.989 45.760,258.206 44.233 C 259.033 43.197,259.170 43.161,260.713 43.577 C 264.116 44.493,265.709 48.423,262.917 49.012 C 261.040 49.408,260.617 49.809,260.172 51.612 C 259.937 52.567,259.487 53.480,259.172 53.641 C 256.667 54.926,254.441 55.921,253.600 56.133 C 253.050 56.271,251.250 57.468,249.600 58.792 C 245.293 62.247,241.939 63.514,239.108 62.755 C 237.047 62.202,236.953 62.215,234.892 63.329 C 232.868 64.423,232.603 64.463,228.205 64.334 C 222.266 64.160,221.832 63.736,222.629 58.880 C 222.874 57.382,222.781 57.020,221.908 56.080 C 220.251 54.296,219.443 51.568,219.782 48.899 C 219.942 47.634,220.205 44.248,220.366 41.373 C 220.717 35.131,221.617 32.833,223.894 32.368 C 225.678 32.004,226.102 32.642,225.764 35.185 C 225.520 37.026,225.596 37.356,226.489 38.321 C 227.038 38.915,227.796 39.940,228.174 40.600 C 230.311 44.328,238.109 44.391,240.290 40.698 C 241.365 38.879,243.478 37.813,245.326 38.160 C 246.877 38.451,250.000 42.117,250.000 43.646 C 250.000 45.196,250.894 46.400,252.044 46.400 C 253.964 46.400,254.103 45.349,252.565 42.452 C 251.814 41.037,251.200 39.658,251.200 39.386 C 251.200 38.615,248.429 36.314,245.929 35.009 C 243.238 33.606,241.369 34.060,240.421 36.349 C 239.846 37.737,236.599 39.776,234.269 40.213 C 231.887 40.660,229.610 37.623,229.602 33.989 C 229.601 33.433,229.310 32.564,228.955 32.058 C 228.176 30.944,229.697 28.968,231.554 28.681 C 233.675 28.354,236.874 28.411,237.580 28.789 M147.059 56.197 C 150.608 56.628,154.784 61.247,154.827 64.789 C 154.898 70.495,154.732 73.917,154.324 75.200 C 153.713 77.120,149.398 83.405,148.014 84.390 L 146.885 85.194 146.077 83.474 C 143.738 78.497,140.000 79.313,140.000 84.800 C 140.000 86.091,139.809 87.651,139.575 88.265 L 139.151 89.382 138.539 88.120 C 137.699 86.384,137.004 86.242,135.881 87.576 C 135.156 88.438,134.676 88.665,133.898 88.517 C 132.309 88.213,131.612 89.650,131.455 93.545 C 131.383 95.341,131.229 96.905,131.112 97.021 C 130.601 97.532,128.030 95.464,127.456 94.081 L 126.841 92.600 126.830 94.400 C 126.824 95.390,126.962 96.830,127.136 97.600 C 127.311 98.370,127.324 99.450,127.167 100.000 C 126.891 100.962,126.878 100.966,126.840 100.091 C 126.815 99.527,126.411 99.005,125.773 98.715 C 125.209 98.458,124.479 97.697,124.152 97.024 C 122.627 93.888,121.702 92.672,117.306 88.036 C 111.502 81.913,110.597 79.264,112.421 73.737 L 112.865 72.392 113.998 73.199 C 116.362 74.882,118.013 72.952,116.612 70.145 C 115.995 68.908,116.259 66.780,117.063 66.512 C 117.482 66.373,119.812 68.791,120.639 70.224 C 121.020 70.884,121.217 70.921,122.139 70.501 C 123.489 69.886,123.470 69.620,121.820 66.023 L 120.454 63.047 121.619 61.576 C 124.433 58.022,138.170 55.118,147.059 56.197 M276.200 56.403 C 282.320 56.962,288.297 58.273,290.000 59.430 C 293.173 61.585,294.261 64.221,292.561 65.633 C 292.252 65.889,291.999 66.301,291.998 66.549 C 291.996 66.797,291.741 67.487,291.430 68.082 C 290.457 69.949,292.248 71.889,293.448 70.267 C 293.476 70.230,293.795 69.617,294.157 68.904 C 295.708 65.854,298.443 65.926,297.799 69.000 C 296.822 73.670,297.848 75.691,300.022 73.377 C 301.376 71.935,301.990 72.714,302.047 75.949 C 302.073 77.407,302.215 79.140,302.361 79.800 C 302.701 81.329,301.814 82.907,299.290 85.263 C 296.511 87.858,293.649 91.273,291.526 94.527 C 287.593 100.559,285.249 101.760,286.979 96.858 C 287.318 95.900,287.480 94.663,287.341 94.109 L 287.089 93.102 286.561 94.357 C 286.271 95.048,285.711 95.713,285.317 95.835 C 284.923 95.958,284.287 96.225,283.905 96.429 C 283.523 96.633,283.143 96.800,283.060 96.800 C 282.683 96.800,282.464 93.170,282.776 92.083 C 283.318 90.193,281.929 88.417,279.900 88.406 C 279.295 88.403,278.800 88.233,278.800 88.029 C 278.800 87.555,277.656 86.400,277.186 86.400 C 276.989 86.400,276.388 87.048,275.850 87.840 C 274.551 89.752,274.000 88.846,274.000 84.800 C 274.000 81.177,273.603 80.400,271.755 80.400 C 270.255 80.400,268.000 82.153,268.000 83.320 C 268.000 85.398,265.245 84.768,264.170 82.445 C 263.802 81.650,263.180 80.640,262.788 80.200 C 262.397 79.760,261.430 78.320,260.639 77.000 L 259.202 74.600 259.215 68.800 C 259.230 62.300,259.230 62.300,262.239 59.127 C 265.410 55.784,266.690 55.534,276.200 56.403 M204.051 68.842 C 204.749 80.414,204.432 113.155,203.617 113.591 C 202.746 114.057,181.126 114.284,179.732 113.842 C 178.535 113.462,178.535 113.453,178.628 91.850 C 178.726 69.353,178.225 71.464,183.400 71.746 C 186.687 71.924,190.079 71.665,193.509 70.971 C 194.881 70.694,197.142 68.433,198.280 66.200 C 198.616 65.540,199.343 64.517,199.896 63.926 L 200.900 62.852 202.350 63.767 L 203.800 64.683 204.051 68.842 M216.385 65.500 C 217.055 66.105,218.759 67.725,220.173 69.100 L 222.743 71.600 227.909 71.600 C 232.433 71.600,233.160 71.692,233.747 72.342 C 234.720 73.417,234.958 112.414,233.997 113.374 C 233.506 113.866,231.565 114.014,223.398 114.182 C 212.534 114.405,211.042 114.219,210.632 112.587 C 210.282 111.190,210.373 66.291,210.728 65.717 C 211.675 64.184,214.795 64.064,216.385 65.500 M252.120 70.897 C 252.250 72.494,252.675 74.880,253.064 76.200 C 253.814 78.743,253.996 82.121,253.502 84.341 C 253.241 85.514,253.357 85.826,254.424 86.823 C 255.915 88.215,256.350 89.622,256.350 93.051 C 256.350 94.875,256.542 95.894,256.975 96.372 C 257.809 97.294,257.759 98.351,256.814 99.785 C 255.825 101.285,256.027 106.756,257.119 108.030 C 257.483 108.455,257.965 109.554,258.190 110.472 C 258.511 111.779,258.846 112.222,259.735 112.515 C 261.648 113.147,261.810 112.602,261.708 105.880 C 261.598 98.681,262.008 93.127,262.664 92.911 C 262.920 92.826,263.799 93.766,264.617 95.000 C 266.022 97.116,268.367 99.252,271.925 101.656 C 273.717 102.867,274.324 105.886,273.767 110.810 C 273.408 113.986,273.025 114.143,266.400 113.834 C 263.650 113.706,261.040 113.605,260.600 113.611 C 260.160 113.617,255.930 113.721,251.200 113.842 C 245.614 113.984,242.215 113.914,241.500 113.641 L 240.400 113.220 240.400 92.886 C 240.400 70.081,240.169 71.704,243.600 70.415 C 244.810 69.961,246.970 69.004,248.400 68.290 C 251.567 66.707,251.792 66.865,252.120 70.897 M167.661 69.154 C 169.058 69.808,170.888 70.469,171.729 70.622 C 172.823 70.821,173.360 71.168,173.616 71.843 C 174.207 73.397,174.154 112.732,173.561 113.447 C 173.141 113.953,171.742 114.011,164.233 113.834 C 152.859 113.566,153.535 113.566,146.973 113.831 C 139.957 114.114,140.309 114.424,140.372 108.020 C 140.431 102.100,140.250 102.523,143.599 100.457 C 146.329 98.772,149.707 95.473,150.517 93.700 C 151.875 90.728,152.451 93.568,152.426 103.119 C 152.413 107.893,152.563 112.049,152.759 112.354 C 154.737 115.438,159.027 104.719,157.348 100.887 C 156.571 99.114,156.598 97.552,157.432 95.939 C 157.785 95.255,158.106 93.365,158.188 91.477 C 158.353 87.720,158.581 86.946,159.695 86.349 C 160.428 85.957,160.474 85.661,160.230 82.860 C 159.969 79.860,160.508 76.225,161.646 73.308 C 161.884 72.699,162.067 71.401,162.052 70.425 C 162.005 67.202,163.010 66.974,167.661 69.154 M105.446 82.906 C 105.911 83.178,107.030 83.805,107.932 84.301 C 110.150 85.519,117.193 92.299,117.839 93.837 C 118.124 94.518,119.014 95.859,119.816 96.819 C 126.113 104.356,125.820 108.176,118.512 113.784 C 114.491 116.869,110.049 124.245,109.602 128.578 C 109.020 134.222,107.146 136.467,103.017 136.467 C 98.361 136.467,90.905 132.627,85.756 127.578 C 82.388 124.274,81.985 124.000,80.502 124.000 C 75.523 124.000,77.067 111.723,83.054 103.718 C 85.116 100.961,85.707 98.894,85.906 93.740 L 86.094 88.880 88.147 86.880 C 90.628 84.462,95.137 82.898,99.753 82.854 C 101.267 82.839,102.602 82.731,102.720 82.614 C 103.096 82.238,104.573 82.396,105.446 82.906 M318.600 83.619 C 326.108 85.128,328.013 87.210,328.394 94.328 C 328.674 99.572,329.114 100.874,332.326 105.980 C 336.162 112.080,336.871 114.520,336.325 119.747 C 335.984 123.020,335.378 123.823,332.976 124.183 C 331.718 124.371,330.996 124.742,330.500 125.455 C 330.115 126.008,329.176 127.032,328.413 127.730 C 327.650 128.429,326.493 129.513,325.842 130.140 C 324.490 131.443,317.681 134.971,314.879 135.821 C 308.890 137.639,304.826 135.113,304.808 129.560 C 304.798 126.820,304.252 125.134,302.637 122.858 C 301.956 121.900,300.860 120.255,300.200 119.204 C 298.233 116.070,295.230 112.870,294.003 112.601 C 292.230 112.211,289.600 108.360,289.600 106.154 C 289.600 100.700,303.303 84.129,309.000 82.694 C 310.210 82.389,314.570 82.809,318.600 83.619 M135.596 106.596 C 136.242 107.374,135.974 112.467,135.241 113.351 C 133.871 115.001,129.428 113.816,130.372 112.052 C 130.608 111.612,130.800 110.174,130.800 108.856 C 130.800 106.224,130.890 106.135,133.651 106.046 C 134.498 106.019,135.308 106.248,135.596 106.596 M282.300 106.252 C 283.098 106.466,283.200 106.749,283.202 108.747 C 283.204 109.986,283.463 111.495,283.778 112.099 C 284.483 113.449,283.765 114.000,281.303 114.000 C 278.785 114.000,278.338 113.408,278.264 109.979 C 278.178 105.987,278.883 105.336,282.300 106.252 M110.200 110.345 C 109.760 110.727,109.202 111.390,108.959 111.820 C 108.717 112.249,108.157 112.654,107.716 112.720 C 107.171 112.802,106.743 113.377,106.377 114.520 C 106.082 115.444,105.434 116.746,104.938 117.413 C 103.052 119.953,103.472 124.000,105.622 124.000 C 106.072 124.000,106.599 124.396,106.819 124.900 C 107.143 125.641,107.173 125.553,106.992 124.400 C 106.242 119.630,106.286 118.603,107.309 117.096 C 107.855 116.291,108.543 114.815,108.838 113.816 C 109.260 112.388,109.559 112.000,110.238 112.000 C 111.504 112.000,112.299 110.925,111.566 110.206 C 111.083 109.733,110.882 109.754,110.200 110.345 M302.398 110.603 C 301.976 111.110,302.089 111.273,303.109 111.628 C 304.046 111.955,304.379 112.362,304.578 113.425 C 304.720 114.181,304.986 114.800,305.170 114.800 C 305.353 114.800,305.721 115.327,305.988 115.971 C 306.255 116.615,306.817 117.453,307.237 117.833 C 308.167 118.675,308.244 120.923,307.398 122.546 C 307.069 123.176,306.809 124.166,306.821 124.746 L 306.842 125.800 307.470 124.900 C 307.815 124.405,308.335 124.000,308.626 124.000 C 310.877 124.000,310.877 118.690,308.626 116.822 C 308.282 116.536,308.000 116.004,308.000 115.640 C 308.000 115.276,307.505 114.508,306.900 113.932 C 306.295 113.357,305.275 112.237,304.632 111.443 C 303.324 109.826,303.110 109.745,302.398 110.603 M293.947 121.978 C 296.153 124.234,296.883 126.112,297.642 131.482 C 298.028 134.215,298.514 136.665,298.720 136.926 C 298.927 137.187,299.311 138.069,299.575 138.887 C 300.185 140.783,302.021 142.330,304.045 142.654 C 305.758 142.928,306.150 143.400,306.563 145.689 C 306.857 147.316,306.091 149.326,305.021 149.736 C 303.943 150.150,111.116 149.990,109.537 149.575 C 107.744 149.102,107.176 147.793,107.588 145.081 C 107.937 142.781,107.839 142.881,110.157 142.448 C 112.378 142.033,113.793 140.844,114.449 138.841 C 114.709 138.049,115.149 137.040,115.428 136.600 C 115.706 136.160,116.120 134.246,116.347 132.346 C 117.050 126.467,118.108 123.764,120.518 121.696 L 122.036 120.393 207.318 120.496 L 292.600 120.600 293.947 121.978 M131.288 128.900 C 130.414 129.615,129.386 130.384,129.004 130.610 C 126.875 131.863,128.673 136.900,131.999 138.999 C 136.891 142.088,142.751 137.732,140.239 132.875 C 137.982 128.511,133.950 126.721,131.288 128.900 M163.924 128.532 C 157.910 131.145,159.853 140.750,166.400 140.768 C 169.041 140.775,171.675 138.255,171.743 135.656 C 171.828 132.408,166.395 127.459,163.924 128.532 M246.987 129.205 C 244.488 130.661,241.889 134.372,242.255 135.965 C 243.521 141.485,249.589 142.485,252.826 137.707 C 254.973 134.537,253.972 130.902,250.387 128.854 L 248.974 128.047 246.987 129.205 M276.326 129.900 C 272.651 133.322,272.275 135.683,275.002 138.223 C 278.545 141.521,283.357 140.029,285.664 134.916 C 288.001 129.734,280.709 125.818,276.326 129.900 M78.000 129.419 C 78.000 130.327,77.175 130.518,76.607 129.743 C 76.236 129.235,76.202 128.922,76.498 128.740 C 77.097 128.369,78.000 128.778,78.000 129.419 M89.137 135.538 C 90.966 136.649,93.303 137.868,94.331 138.248 C 95.359 138.627,96.380 139.063,96.600 139.216 C 96.820 139.369,97.916 139.793,99.035 140.158 C 102.068 141.147,103.383 142.695,103.035 144.868 C 102.567 147.797,100.552 148.831,98.031 147.435 C 97.219 146.985,96.850 146.987,95.744 147.449 C 95.019 147.752,93.632 148.000,92.662 148.000 C 90.423 148.000,90.102 148.418,89.757 151.785 C 89.520 154.106,89.275 154.759,88.190 155.968 C 85.118 159.389,82.730 168.012,84.222 170.290 C 85.240 171.844,86.000 170.597,86.000 167.373 C 86.000 165.569,86.178 164.751,86.655 164.355 C 87.015 164.056,87.638 163.044,88.040 162.106 C 88.443 161.168,89.026 160.400,89.337 160.400 C 89.648 160.400,90.175 159.995,90.507 159.500 C 91.260 158.381,91.751 158.751,91.253 160.061 C 90.995 160.739,91.048 161.332,91.427 162.017 C 92.213 163.435,92.121 164.967,91.200 165.800 C 90.643 166.304,90.400 167.032,90.400 168.199 C 90.400 169.121,90.760 170.921,91.200 172.200 C 93.667 179.369,90.310 186.998,83.988 188.589 C 83.445 188.726,82.581 189.478,82.069 190.260 L 81.139 191.682 80.200 190.800 C 79.285 189.940,75.500 188.000,74.738 188.000 C 74.528 188.000,73.601 187.656,72.678 187.236 C 71.755 186.816,70.280 186.342,69.400 186.183 C 62.605 184.952,60.525 179.952,62.192 168.855 C 62.517 166.688,62.763 163.765,62.739 162.358 C 62.703 160.327,63.042 158.770,64.385 154.800 L 66.077 149.800 65.938 144.200 L 65.800 138.600 67.400 138.480 C 69.125 138.350,70.000 137.573,70.000 136.173 C 70.000 134.149,71.094 134.275,71.793 136.378 C 72.160 137.485,72.627 138.493,72.831 138.619 C 73.034 138.744,73.200 139.190,73.200 139.608 C 73.200 140.026,73.596 140.738,74.081 141.189 C 75.511 142.522,76.200 141.447,76.200 137.886 C 76.200 133.834,77.400 132.549,78.615 135.300 C 78.931 136.015,79.630 137.128,80.169 137.774 L 81.148 138.948 81.417 137.874 C 81.790 136.390,81.397 135.103,79.943 133.040 L 78.700 131.277 79.808 129.826 L 80.915 128.374 83.363 130.946 C 84.752 132.405,87.251 134.393,89.137 135.538 M188.050 128.718 C 186.911 128.899,184.226 131.458,183.814 132.755 C 182.217 137.787,188.559 142.509,192.687 139.361 C 197.383 135.779,193.902 127.793,188.050 128.718 M334.000 129.439 C 334.000 129.744,334.340 130.206,334.755 130.465 C 335.717 131.065,335.204 132.843,333.805 133.760 C 332.721 134.470,332.219 136.265,332.608 138.037 L 332.880 139.274 334.024 137.937 C 334.653 137.202,335.364 136.031,335.603 135.335 C 336.674 132.227,337.992 133.597,337.882 137.704 C 337.818 140.086,337.946 140.916,338.453 141.424 C 339.424 142.396,340.800 141.553,340.800 139.986 C 340.800 139.334,340.947 138.800,341.127 138.800 C 341.307 138.800,341.766 137.810,342.147 136.600 C 342.529 135.390,342.907 134.400,342.988 134.400 C 343.724 134.400,344.401 135.042,344.405 135.743 C 344.418 137.668,344.847 138.403,345.817 138.160 C 347.987 137.615,348.197 138.201,348.229 144.873 C 348.257 150.903,348.281 151.067,349.755 155.200 C 351.333 159.628,351.718 162.483,352.340 174.361 C 352.703 181.293,350.544 185.062,345.683 185.984 C 344.538 186.201,343.105 186.626,342.500 186.927 C 341.895 187.229,340.500 187.712,339.400 188.000 C 336.845 188.670,335.266 189.443,333.962 190.661 L 332.924 191.631 331.999 190.315 C 331.397 189.460,330.006 188.482,328.020 187.518 C 325.737 186.411,324.788 185.704,324.263 184.718 C 323.876 183.993,323.280 182.886,322.938 182.259 C 321.635 179.865,321.938 172.366,323.423 170.246 C 324.330 168.951,324.143 167.074,323.000 166.000 C 321.890 164.957,321.734 163.532,322.566 162.029 C 322.922 161.387,322.995 160.679,322.781 159.935 C 322.588 159.260,322.618 158.713,322.856 158.565 C 323.075 158.430,323.347 158.676,323.461 159.111 C 323.575 159.546,324.079 160.090,324.581 160.319 C 325.782 160.866,328.000 165.602,328.000 167.619 C 328.000 170.735,329.112 172.083,330.110 170.178 C 331.503 167.520,328.994 158.630,326.068 155.854 C 325.014 154.854,324.825 154.336,324.587 151.798 C 324.288 148.606,323.742 148.000,321.168 148.000 C 320.512 148.000,319.335 147.733,318.554 147.407 C 317.299 146.882,317.001 146.882,315.987 147.407 C 314.014 148.427,312.500 148.183,311.596 146.700 C 309.820 143.788,310.858 141.616,314.600 140.411 C 315.480 140.128,316.396 139.742,316.635 139.553 C 316.874 139.365,317.822 138.945,318.743 138.620 C 322.995 137.120,328.477 133.501,331.396 130.267 C 332.917 128.583,334.000 128.239,334.000 129.439 M337.540 129.712 C 337.108 130.519,337.078 130.521,336.547 129.796 C 335.943 128.969,336.484 128.304,337.456 128.677 C 337.864 128.833,337.883 129.070,337.540 129.712 M217.768 130.458 C 214.839 131.879,214.687 138.330,217.539 140.195 C 221.448 142.752,226.027 140.188,226.099 135.402 C 226.159 131.437,221.477 128.658,217.768 130.458 M119.728 155.411 C 131.950 155.515,132.894 155.573,133.413 156.261 C 134.334 157.481,134.254 322.891,133.332 323.657 C 132.080 324.697,118.959 324.644,118.399 323.597 C 118.091 323.023,117.965 319.171,118.002 311.478 C 118.070 297.217,118.095 297.882,117.477 297.038 C 116.982 296.360,116.891 296.374,115.777 297.293 C 115.130 297.827,114.266 298.386,113.858 298.536 C 112.963 298.863,113.203 300.396,114.410 302.072 C 115.567 303.677,116.096 315.030,114.962 313.895 C 114.351 313.285,113.084 305.475,112.860 300.942 C 112.558 294.838,112.070 293.738,109.984 294.466 C 108.437 295.005,108.448 294.947,107.768 306.272 C 106.657 324.804,106.898 323.881,103.127 324.044 C 99.145 324.218,99.519 328.891,99.620 280.223 C 99.685 248.999,99.586 237.095,99.254 236.274 C 98.668 234.821,98.591 235.003,100.200 234.053 C 102.210 232.867,102.104 230.875,99.755 225.691 C 98.662 223.278,98.561 222.131,99.363 221.231 C 100.104 220.400,100.224 219.239,99.700 217.972 C 99.466 217.406,99.143 215.091,98.982 212.827 L 98.691 208.710 99.769 209.417 C 100.769 210.072,100.896 210.075,101.504 209.468 C 102.111 208.860,102.065 208.793,100.871 208.554 C 99.034 208.187,99.082 208.484,99.013 197.038 L 98.949 186.600 100.696 182.968 C 104.190 175.704,104.435 167.694,101.304 163.090 C 99.233 160.044,101.564 154.527,104.718 155.011 C 105.753 155.169,112.507 155.349,119.728 155.411 M173.486 155.800 C 174.114 156.835,174.230 322.823,173.603 323.994 C 172.923 325.265,141.896 325.217,140.540 323.944 L 139.600 323.061 139.600 239.975 C 139.600 161.433,139.638 156.842,140.300 156.045 C 141.463 154.643,172.643 154.412,173.486 155.800 M203.668 155.861 C 204.857 156.938,204.777 323.135,203.587 324.212 C 202.682 325.031,199.328 324.845,198.757 323.944 C 198.233 323.117,198.333 320.991,198.976 319.308 C 199.292 318.479,199.763 316.720,200.021 315.400 C 200.280 314.080,200.786 312.460,201.146 311.800 C 202.154 309.951,202.120 288.107,201.106 285.787 C 200.724 284.914,200.236 282.850,200.022 281.200 C 199.808 279.550,199.409 276.984,199.135 275.497 C 198.736 273.335,198.737 272.454,199.138 271.097 C 199.413 270.164,199.792 267.948,199.979 266.174 C 200.165 264.399,200.590 262.147,200.922 261.169 C 201.626 259.096,201.405 257.036,200.516 257.377 C 200.196 257.500,199.699 257.600,199.410 257.600 C 198.589 257.600,198.277 258.718,198.015 262.600 C 197.790 265.939,197.219 268.024,195.389 272.200 C 194.701 273.768,194.000 278.913,194.000 282.388 C 194.000 284.303,193.817 285.326,193.400 285.743 C 192.710 286.433,192.649 287.911,193.215 290.200 C 193.433 291.080,193.796 295.040,194.021 299.000 C 194.247 302.960,194.565 306.823,194.729 307.584 L 195.026 308.968 195.957 307.661 C 197.011 306.181,197.056 305.657,196.450 301.946 C 195.059 293.430,195.137 281.579,196.603 278.811 C 197.307 277.482,197.448 277.895,198.170 283.400 C 198.487 285.820,199.048 288.397,199.416 289.127 C 200.230 290.740,200.664 299.743,200.217 305.712 L 199.924 309.624 197.721 311.791 L 195.519 313.959 195.808 318.594 C 196.214 325.088,196.585 324.800,187.802 324.800 L 180.928 324.800 180.464 323.781 C 179.778 322.274,179.797 157.283,180.484 155.775 L 180.968 154.712 191.944 154.948 C 201.483 155.153,203.017 155.272,203.668 155.861 M233.901 155.898 C 234.917 157.449,234.767 322.268,233.748 323.823 L 233.107 324.801 221.973 324.740 C 212.605 324.688,210.803 324.585,210.614 324.092 C 210.313 323.308,210.344 157.243,210.646 156.123 C 210.949 154.994,210.955 154.993,223.111 154.922 L 233.222 154.862 233.901 155.898 M273.977 155.910 C 274.860 157.847,274.537 323.352,273.649 324.156 C 272.579 325.124,241.408 324.976,240.791 324.000 C 240.289 323.204,240.276 156.816,240.778 156.021 C 241.337 155.138,243.811 155.001,259.277 154.991 L 273.555 154.983 273.977 155.910 M312.079 156.100 C 313.556 159.006,313.816 161.357,312.835 162.943 C 309.695 168.024,310.122 178.078,313.720 183.800 C 315.085 185.970,315.152 186.579,314.826 193.800 C 314.737 195.780,314.810 200.370,314.990 204.000 C 315.214 208.537,315.162 212.262,314.823 215.917 C 314.437 220.081,314.436 221.361,314.815 221.818 C 315.478 222.617,315.086 224.273,313.386 227.857 C 311.863 231.067,311.852 231.901,313.315 233.499 C 314.616 234.921,315.158 322.944,313.869 323.665 C 312.766 324.282,308.831 324.152,308.081 323.474 C 307.214 322.689,306.576 316.455,306.171 304.819 C 305.914 297.405,305.482 295.418,303.917 294.441 C 302.027 293.261,301.200 295.268,301.200 301.031 C 301.200 304.877,301.006 306.724,300.350 309.108 C 298.992 314.052,298.865 314.138,298.743 310.200 C 298.547 303.834,298.833 301.631,300.063 300.043 C 300.837 299.044,300.495 298.000,299.394 298.000 C 299.114 298.000,298.782 297.730,298.655 297.400 C 298.328 296.547,296.905 296.657,296.414 297.574 C 296.154 298.060,296.000 303.038,296.000 310.984 L 296.000 323.620 294.905 324.036 C 293.530 324.559,281.391 324.355,280.842 323.800 C 280.158 323.108,280.066 157.085,280.749 156.262 C 281.239 155.671,282.700 155.599,294.349 155.594 C 302.084 155.590,307.644 155.430,308.000 155.200 C 309.404 154.292,311.382 154.729,312.079 156.100 M120.471 162.434 C 120.212 162.850,119.996 164.137,119.990 165.295 C 119.985 166.453,119.794 168.120,119.566 169.000 C 119.338 169.880,119.161 170.780,119.173 171.000 C 119.352 174.242,120.491 187.553,120.731 189.200 L 121.051 191.400 121.560 189.800 C 122.345 187.327,122.573 180.339,122.011 175.929 C 121.613 172.810,121.611 171.177,121.999 168.005 C 122.631 162.846,121.894 160.157,120.471 162.434 M292.232 162.365 C 291.538 163.132,291.523 163.459,291.997 167.576 C 292.412 171.176,292.406 173.034,291.962 177.884 C 291.299 185.125,291.343 186.512,292.315 188.985 L 293.077 190.926 293.569 187.363 C 295.244 175.233,294.426 159.940,292.232 162.365 M128.455 163.500 C 128.248 164.325,127.966 166.217,127.828 167.704 C 127.690 169.192,127.375 170.902,127.129 171.504 C 126.872 172.133,126.641 175.598,126.587 179.640 C 126.476 187.889,125.902 191.919,124.556 193.903 C 124.030 194.678,123.600 195.888,123.600 196.592 C 123.600 197.297,123.314 198.756,122.966 199.836 C 122.533 201.174,122.225 204.415,121.999 210.000 C 121.816 214.510,121.540 219.740,121.385 221.621 C 121.116 224.886,121.148 225.095,122.094 226.195 L 123.085 227.347 123.696 226.374 C 124.134 225.675,124.382 223.706,124.574 219.400 C 124.722 216.100,125.004 211.780,125.202 209.800 C 125.399 207.820,125.735 204.220,125.948 201.800 C 126.161 199.380,126.548 196.860,126.808 196.200 C 127.083 195.502,127.406 191.229,127.582 185.983 C 127.773 180.249,128.059 176.637,128.367 176.062 C 130.110 172.804,131.374 163.409,130.185 162.540 C 129.085 161.735,128.867 161.856,128.455 163.500 M282.832 162.562 C 282.308 163.192,282.613 164.953,283.460 166.189 C 283.757 166.623,284.000 167.901,284.000 169.029 C 284.000 171.203,284.400 172.748,285.672 175.483 C 286.324 176.884,286.512 178.557,286.800 185.483 C 286.990 190.057,287.332 195.150,287.561 196.800 C 288.271 201.925,289.617 218.041,289.608 221.313 C 289.603 223.221,289.837 224.993,290.212 225.891 L 290.825 227.357 291.797 226.379 C 292.973 225.194,292.970 225.266,292.429 213.200 C 291.986 203.310,291.660 201.276,289.091 192.400 C 287.987 188.584,287.847 187.432,287.558 179.800 C 287.343 174.126,287.038 170.763,286.620 169.436 C 286.279 168.356,286.000 166.703,286.000 165.762 C 286.000 162.485,284.312 160.779,282.832 162.562 M152.133 167.099 C 151.579 168.424,151.571 168.970,152.058 171.799 C 152.388 173.713,152.503 175.884,152.344 177.200 C 151.892 180.953,151.993 185.335,152.554 186.349 L 153.080 187.298 153.381 185.949 C 153.546 185.207,153.757 182.287,153.848 179.459 C 153.940 176.632,154.192 173.989,154.408 173.586 C 155.374 171.780,154.439 165.600,153.200 165.600 C 152.958 165.600,152.477 166.275,152.133 167.099 M260.268 166.325 C 259.079 167.639,260.127 188.833,261.321 187.639 C 262.019 186.941,262.417 167.540,261.755 166.500 C 261.065 165.416,261.088 165.419,260.268 166.325 M69.164 189.788 C 70.795 190.145,73.062 190.879,74.203 191.419 C 75.344 191.958,76.545 192.400,76.873 192.400 C 78.444 192.400,84.000 198.151,84.000 199.777 C 84.000 200.094,84.183 200.466,84.407 200.604 C 84.630 200.742,84.709 201.023,84.583 201.228 C 84.192 201.859,83.095 201.641,82.138 200.741 C 81.030 199.700,80.228 200.160,79.849 202.053 C 79.622 203.188,79.491 203.275,78.232 203.128 C 76.411 202.915,76.148 204.132,77.402 206.967 L 78.314 209.028 76.921 209.942 C 75.247 211.039,75.332 212.381,77.179 214.000 C 78.823 215.442,79.303 216.629,79.434 219.584 C 79.499 221.023,79.597 222.650,79.652 223.200 C 79.708 223.750,79.719 226.565,79.677 229.456 C 79.568 236.876,79.948 236.542,71.337 236.810 C 53.585 237.364,50.020 233.787,52.552 217.960 C 53.059 214.792,53.131 213.276,52.837 211.960 C 52.028 208.335,52.187 202.371,53.142 200.505 C 55.357 196.184,60.159 190.384,62.011 189.797 C 62.445 189.659,62.800 189.355,62.800 189.121 C 62.800 188.625,64.813 188.836,69.164 189.788 M351.914 189.488 C 354.738 191.278,358.981 196.473,360.664 200.200 L 361.928 203.000 361.526 209.400 C 361.240 213.952,361.252 216.581,361.567 218.506 C 363.981 233.261,361.173 236.409,345.336 236.707 C 333.972 236.920,334.444 237.305,334.422 227.800 C 334.399 218.327,334.650 216.683,336.419 214.673 C 338.665 212.122,338.812 211.077,337.085 209.945 C 336.097 209.298,335.781 208.857,335.989 208.418 C 336.150 208.078,336.605 207.130,336.999 206.310 C 337.805 204.634,337.488 203.859,335.825 203.442 C 335.306 203.312,334.503 202.562,334.039 201.776 C 333.346 200.601,333.037 200.396,332.298 200.620 C 330.799 201.074,330.702 201.038,330.383 199.913 C 330.122 198.990,330.327 198.541,331.738 196.934 C 334.644 193.626,335.272 193.132,337.561 192.350 C 338.792 191.929,340.395 191.305,341.123 190.963 C 342.222 190.446,348.498 188.999,350.314 188.844 C 350.597 188.820,351.317 189.110,351.914 189.488 M92.911 193.976 C 93.082 194.133,93.208 199.108,93.192 205.031 C 93.175 210.954,93.138 237.444,93.110 263.898 C 93.062 308.595,93.012 311.954,92.398 311.398 C 92.034 311.069,91.548 310.800,91.316 310.800 C 90.897 310.800,90.002 307.898,89.998 306.523 C 89.996 306.125,89.710 305.260,89.362 304.600 C 89.014 303.940,88.314 301.960,87.807 300.200 C 85.350 291.673,85.065 279.285,87.217 274.564 C 89.012 270.626,89.113 259.835,87.393 255.800 C 87.111 255.140,86.506 253.070,86.048 251.200 C 85.589 249.330,85.004 247.073,84.747 246.184 C 84.012 243.642,84.553 241.775,86.374 240.569 C 89.702 238.367,90.725 232.629,88.836 226.759 C 87.314 222.030,87.309 221.067,88.779 216.842 C 89.422 214.996,90.175 212.206,90.453 210.642 C 90.828 208.538,91.198 207.611,91.879 207.071 C 93.074 206.125,93.046 205.010,91.796 203.760 C 90.514 202.477,89.515 195.983,90.326 194.203 C 90.795 193.173,91.930 193.074,92.911 193.976 M324.154 197.330 C 323.846 198.688,323.343 200.610,323.036 201.600 C 322.000 204.941,321.867 206.737,322.575 207.819 C 322.933 208.364,323.658 210.477,324.187 212.512 C 324.716 214.548,325.358 216.751,325.613 217.407 C 326.343 219.284,326.751 222.913,326.323 223.728 C 323.581 228.957,324.355 238.744,327.643 240.422 C 329.713 241.478,330.365 244.782,329.130 247.960 C 325.168 258.159,324.357 270.056,327.247 275.601 C 328.408 277.827,328.926 283.073,328.410 287.377 C 328.171 289.370,327.807 292.401,327.601 294.113 C 327.395 295.825,326.523 299.515,325.664 302.313 C 324.804 305.111,323.940 308.018,323.743 308.774 C 323.481 309.780,323.044 310.287,322.110 310.668 L 320.835 311.188 320.845 252.792 L 320.854 194.397 321.927 193.830 C 323.934 192.769,324.860 194.223,324.154 197.330 M61.657 199.775 C 60.977 200.846,60.223 202.325,59.980 203.061 C 59.737 203.798,59.372 204.400,59.169 204.400 C 58.966 204.400,58.800 204.854,58.800 205.409 C 58.800 206.389,58.829 206.400,59.782 205.775 C 61.274 204.797,61.469 205.219,61.691 209.908 C 61.888 214.068,62.636 216.800,63.578 216.800 C 63.774 216.800,64.212 216.906,64.551 217.036 C 65.491 217.397,65.793 215.533,65.033 214.063 C 64.236 212.522,64.220 209.354,65.002 207.854 C 65.775 206.374,65.773 203.842,65.000 203.200 C 64.661 202.919,64.400 202.047,64.400 201.195 C 64.400 200.315,64.086 199.301,63.646 198.758 L 62.892 197.827 61.657 199.775 M350.467 198.759 C 350.213 198.915,349.887 199.934,349.742 201.022 C 349.597 202.110,349.160 203.411,348.771 203.914 C 348.034 204.865,348.156 206.050,349.189 207.979 C 349.659 208.857,349.569 212.071,348.984 215.300 C 348.721 216.755,348.748 216.800,349.889 216.800 C 351.761 216.800,352.420 214.877,352.440 209.350 C 352.452 206.253,352.540 205.873,353.426 205.102 C 354.695 203.999,354.656 203.461,353.124 200.933 C 351.792 198.735,351.238 198.282,350.467 198.759 M312.800 209.200 C 312.800 209.420,313.059 209.600,313.376 209.600 C 313.693 209.600,314.064 209.420,314.200 209.200 C 314.336 208.980,314.077 208.800,313.624 208.800 C 313.171 208.800,312.800 208.980,312.800 209.200 M358.920 240.670 C 362.216 241.022,362.648 241.895,362.447 247.800 C 362.365 250.220,362.276 254.487,362.249 257.281 L 362.200 262.363 363.639 263.881 C 369.538 270.105,369.419 278.116,363.400 280.003 C 362.520 280.279,361.610 280.654,361.378 280.837 C 359.769 282.103,345.514 282.983,341.579 282.060 C 336.661 280.905,334.250 278.321,335.428 275.464 C 335.906 274.304,336.127 272.578,336.157 269.766 C 336.197 265.969,336.271 265.630,337.400 264.000 C 338.509 262.400,338.603 261.992,338.639 258.614 C 338.666 256.006,338.860 254.678,339.313 253.979 C 340.631 251.946,340.386 250.686,338.500 249.810 C 337.565 249.376,336.800 248.846,336.800 248.632 C 336.800 248.418,336.315 247.544,335.723 246.689 C 334.649 245.139,334.189 241.679,334.955 240.910 C 335.296 240.569,351.923 240.035,354.800 240.274 C 355.790 240.356,357.644 240.534,358.920 240.670 M77.867 240.644 C 79.762 241.152,79.877 244.147,78.077 246.135 C 77.711 246.541,77.228 247.298,77.005 247.818 C 76.782 248.338,75.970 249.188,75.200 249.707 C 73.675 250.733,73.446 252.440,74.593 254.228 C 75.282 255.303,75.438 256.748,74.998 258.000 C 74.483 259.466,74.673 260.241,76.461 263.972 C 77.979 267.136,78.062 267.494,77.815 269.795 C 77.632 271.503,77.750 273.032,78.202 274.831 C 79.107 278.436,78.751 279.179,75.325 280.837 C 68.545 284.118,50.644 282.059,47.438 277.629 C 45.164 274.488,46.603 266.911,49.797 265.202 C 51.908 264.072,52.589 258.526,51.771 249.143 C 51.267 243.368,52.063 241.239,54.897 240.777 C 56.992 240.436,76.667 240.322,77.867 240.644 M106.656 245.878 C 105.706 246.827,106.597 250.000,107.813 250.000 C 108.361 250.000,108.816 250.287,108.924 250.700 C 109.070 251.257,109.117 251.227,109.154 250.551 C 109.244 248.900,107.290 245.244,106.656 245.878 M306.423 246.744 C 306.150 247.403,305.673 248.040,305.363 248.159 C 305.052 248.278,304.800 248.912,304.800 249.579 C 304.800 250.743,304.837 250.767,305.900 250.300 C 307.311 249.679,307.588 249.270,307.588 247.800 C 307.588 245.871,307.004 245.342,306.423 246.744 M308.924 268.600 C 308.926 269.920,309.001 270.412,309.090 269.693 C 309.179 268.974,309.177 267.894,309.086 267.293 C 308.995 266.692,308.922 267.280,308.924 268.600 M64.594 274.810 C 64.262 275.348,65.134 275.676,65.842 275.280 C 66.408 274.964,66.382 274.889,65.646 274.696 C 65.181 274.575,64.708 274.626,64.594 274.810 M78.037 284.420 C 78.600 284.721,78.799 285.202,78.739 286.120 C 78.694 286.824,78.914 287.850,79.228 288.400 C 79.672 289.175,79.810 291.348,79.842 298.073 L 79.885 306.746 81.551 308.639 C 86.281 314.012,87.601 319.152,86.229 326.846 C 84.845 334.605,83.923 335.128,72.660 334.539 C 68.447 334.319,62.707 334.189,59.903 334.251 C 56.552 334.325,54.212 334.185,53.071 333.841 C 52.116 333.554,50.764 333.403,50.067 333.505 C 46.846 333.978,45.170 330.049,46.441 325.004 C 47.064 322.527,50.000 323.679,50.000 326.400 C 50.000 329.556,51.540 329.305,53.794 325.782 C 55.498 323.118,58.182 320.943,60.371 320.451 C 64.427 319.540,63.295 317.681,59.011 318.216 C 57.313 318.428,56.863 318.664,56.306 319.635 C 55.558 320.938,54.038 321.209,53.192 320.190 C 52.542 319.407,53.758 316.913,55.092 316.293 C 55.583 316.065,56.089 315.551,56.216 315.150 C 56.343 314.749,56.887 314.075,57.424 313.653 C 57.961 313.230,58.400 312.763,58.400 312.614 C 58.400 312.465,58.672 312.071,59.004 311.739 C 60.581 310.162,58.520 310.293,56.804 311.879 C 56.256 312.386,55.609 312.800,55.366 312.800 C 54.749 312.800,53.712 314.043,53.531 315.000 C 53.380 315.804,51.835 315.946,51.081 315.226 C 50.578 314.747,51.632 312.843,52.561 312.554 C 53.643 312.216,53.986 311.668,53.994 310.264 C 53.998 309.507,54.401 308.776,55.200 308.075 C 55.860 307.496,56.400 306.702,56.400 306.311 C 56.400 305.920,56.580 305.600,56.800 305.600 C 57.020 305.600,57.200 305.406,57.200 305.168 C 57.200 304.897,56.755 304.834,56.000 305.000 L 54.800 305.264 54.800 303.107 C 54.800 301.217,54.953 300.804,56.034 299.775 C 57.728 298.163,58.165 297.280,57.603 296.604 C 57.046 295.932,54.987 296.518,53.881 297.663 C 52.664 298.923,51.521 297.859,50.440 294.461 C 49.779 292.382,51.086 288.208,53.089 286.000 C 53.189 285.890,57.710 285.800,63.135 285.800 C 72.453 285.800,73.100 285.752,74.800 284.928 C 76.937 283.893,77.027 283.879,78.037 284.420 M339.600 285.000 C 341.996 286.008,353.113 286.458,355.912 285.660 C 358.266 284.989,361.108 285.604,361.804 286.935 C 362.168 287.631,362.751 288.738,363.101 289.396 C 365.089 293.141,362.377 300.732,360.090 297.824 C 359.226 296.726,357.368 295.849,356.734 296.241 C 356.129 296.615,356.736 298.445,357.828 299.538 C 359.241 300.950,359.250 304.000,357.843 304.000 C 356.643 304.000,356.209 305.010,357.117 305.689 C 358.184 306.487,360.000 309.357,360.000 310.245 C 360.000 311.303,360.806 312.299,361.800 312.470 C 362.342 312.563,362.643 312.978,362.732 313.760 C 362.941 315.588,361.246 316.297,360.513 314.688 C 360.284 314.187,359.311 313.242,358.349 312.588 C 357.387 311.935,356.362 311.175,356.071 310.900 C 354.886 309.778,354.119 310.656,355.115 311.994 C 355.492 312.500,356.790 313.921,358.000 315.151 C 360.335 317.525,361.200 318.840,361.200 320.012 C 361.200 320.409,361.425 320.832,361.700 320.954 C 361.975 321.075,361.480 321.073,360.600 320.950 C 359.628 320.815,358.653 320.347,358.116 319.760 C 356.511 318.004,353.585 317.478,351.600 318.588 L 350.600 319.147 352.200 319.787 C 357.526 321.917,359.219 323.251,360.516 326.335 C 360.796 327.002,361.494 327.916,362.067 328.367 L 363.109 329.186 363.525 328.093 C 363.754 327.492,364.144 326.339,364.391 325.532 C 364.721 324.456,365.160 323.953,366.036 323.647 C 367.642 323.088,368.115 324.298,367.931 328.491 C 367.684 334.096,368.234 333.963,342.742 334.569 C 330.782 334.854,329.308 334.360,328.430 329.779 C 328.221 328.691,327.796 326.810,327.485 325.600 C 326.121 320.289,329.334 310.690,333.600 307.336 C 334.099 306.944,334.206 305.390,334.233 298.132 C 334.284 284.764,334.982 283.056,339.600 285.000 M52.013 308.143 C 51.572 310.097,51.377 310.287,50.018 310.088 C 48.804 309.910,48.298 308.758,49.191 308.206 C 49.405 308.073,49.566 306.890,49.547 305.578 C 49.524 303.919,49.731 302.860,50.225 302.106 L 50.936 301.020 51.628 303.900 C 52.084 305.796,52.215 307.246,52.013 308.143 M363.831 302.706 C 364.303 303.028,365.166 309.022,364.817 309.552 C 363.855 311.011,362.890 310.750,362.360 308.888 C 361.781 306.853,361.786 306.663,362.501 304.100 C 362.992 302.337,363.110 302.214,363.831 302.706 M76.612 304.781 C 76.495 304.971,76.549 305.534,76.733 306.031 C 77.065 306.927,77.253 306.831,77.713 305.533 C 77.961 304.833,76.990 304.169,76.612 304.781 M336.717 306.019 C 336.923 307.420,336.990 307.408,337.351 305.900 C 337.540 305.114,337.461 304.800,337.077 304.800 C 336.704 304.800,336.594 305.175,336.717 306.019 M304.062 319.302 C 304.499 322.111,304.477 322.452,303.817 323.181 C 302.705 324.410,302.400 323.824,302.405 320.476 C 302.416 314.752,303.261 314.152,304.062 319.302 M111.865 319.720 C 112.132 322.574,111.550 324.388,110.616 323.614 C 109.588 322.760,109.592 321.352,110.635 316.806 C 110.989 315.260,111.580 316.659,111.865 319.720 M336.800 324.145 C 336.800 325.356,336.897 325.470,337.780 325.302 L 338.761 325.114 337.905 323.957 C 336.832 322.506,336.800 322.511,336.800 324.145 M318.333 328.750 C 320.864 329.061,321.444 329.439,321.778 331.000 C 321.873 331.440,322.060 332.318,322.195 332.951 C 322.330 333.584,323.017 334.641,323.720 335.299 C 328.365 339.641,328.265 339.285,326.040 343.586 C 323.076 349.315,322.157 355.770,323.492 361.478 C 323.760 362.625,323.751 363.289,323.462 363.578 C 322.690 364.350,91.424 364.152,90.782 363.379 C 90.361 362.871,90.365 362.303,90.801 360.279 C 91.962 354.894,90.868 347.569,88.362 343.936 C 86.603 341.388,86.365 339.718,87.600 338.600 C 88.040 338.202,88.400 337.748,88.400 337.591 C 88.400 337.434,89.210 336.495,90.200 335.505 C 91.274 334.431,92.000 333.340,92.000 332.799 C 92.000 330.698,92.881 328.847,93.957 328.687 C 96.001 328.384,315.847 328.445,318.333 328.750 M76.129 338.264 C 80.560 338.610,82.192 340.078,82.217 343.742 C 82.228 345.431,82.495 346.701,83.069 347.800 C 85.761 352.958,86.127 356.974,83.861 356.501 C 80.662 355.833,78.807 357.086,81.569 358.049 C 83.116 358.588,83.261 360.430,81.900 362.243 C 81.089 363.324,80.905 363.394,80.043 362.956 C 78.565 362.205,77.764 362.692,78.734 363.751 C 79.844 364.963,81.601 368.609,81.594 369.687 C 81.588 370.594,80.818 372.215,80.806 371.346 C 80.803 371.096,80.170 370.592,79.400 370.227 C 78.630 369.861,78.000 369.391,78.000 369.181 C 78.000 368.972,77.649 368.800,77.221 368.800 C 76.011 368.800,76.930 370.923,78.521 371.806 C 80.828 373.086,82.191 375.047,81.509 376.104 C 80.235 378.080,80.341 378.804,82.222 380.953 C 84.186 383.198,84.290 383.658,83.366 385.968 C 82.163 388.975,78.384 389.401,72.720 387.168 C 68.489 385.501,59.211 386.517,56.432 388.953 C 52.584 392.325,47.776 391.640,45.980 387.464 C 45.057 385.319,45.358 382.974,47.015 379.400 C 47.608 378.120,49.712 371.798,50.209 369.800 C 50.374 369.140,50.547 365.000,50.595 360.600 C 50.684 352.291,51.788 346.459,53.455 345.480 C 53.755 345.304,54.000 344.890,54.000 344.559 C 54.000 343.331,55.848 340.807,57.398 339.918 C 61.116 337.787,65.284 337.419,76.129 338.264 M353.000 338.477 C 360.404 340.139,363.494 347.041,363.710 362.400 C 363.813 369.686,363.918 370.802,364.652 372.414 C 365.107 373.412,365.711 375.212,365.994 376.414 C 366.277 377.616,366.825 379.231,367.213 380.002 C 371.631 388.803,364.373 394.468,356.489 388.372 C 353.799 386.292,343.683 385.622,340.521 387.314 C 336.568 389.430,331.992 388.948,330.602 386.269 C 329.332 383.820,329.445 383.316,331.782 381.035 L 333.983 378.886 333.246 377.943 C 331.916 376.239,331.849 375.314,332.975 374.188 C 333.539 373.625,334.000 373.025,334.000 372.856 C 334.000 372.687,334.585 372.266,335.300 371.921 C 336.889 371.154,338.302 369.002,337.435 368.669 C 337.127 368.551,336.560 368.802,336.176 369.227 C 335.791 369.652,335.244 370.000,334.961 370.000 C 334.677 370.000,334.180 370.380,333.855 370.843 C 332.038 373.437,331.997 369.922,333.800 366.173 C 335.491 362.658,335.487 362.710,334.030 362.862 C 331.373 363.141,330.416 359.033,332.845 357.777 C 333.842 357.261,333.932 357.080,333.519 356.419 C 333.197 355.903,332.842 355.759,332.421 355.975 C 329.609 357.421,327.776 356.392,328.969 354.039 C 329.259 353.467,329.618 352.159,329.768 351.131 C 329.919 350.091,330.563 348.493,331.218 347.531 C 332.225 346.052,332.361 345.552,332.152 344.094 C 331.841 341.923,332.455 340.447,334.152 339.287 C 336.376 337.767,347.673 337.281,353.000 338.477 M310.957 340.906 C 306.355 343.604,304.952 345.620,305.341 348.976 C 305.656 351.695,306.886 352.800,309.596 352.800 C 314.351 352.800,317.328 347.809,315.153 343.484 C 313.611 340.415,312.724 339.870,310.957 340.906 M99.555 342.063 C 97.751 344.597,98.175 348.461,100.619 351.766 C 102.226 353.940,107.733 352.877,108.439 350.257 C 110.029 344.351,102.723 337.614,99.555 342.063 M173.924 341.900 C 169.205 346.960,173.932 354.845,180.131 352.255 C 184.207 350.552,184.019 345.997,179.734 342.633 C 176.926 340.428,175.468 340.245,173.924 341.900 M235.509 341.622 C 228.866 345.130,230.112 352.800,237.325 352.800 C 239.314 352.800,239.769 352.416,241.351 349.403 C 243.996 344.367,240.112 339.192,235.509 341.622 M135.300 343.229 C 130.981 347.931,135.664 354.346,142.025 352.440 C 147.193 350.891,144.692 342.732,138.729 341.682 C 137.041 341.385,136.960 341.422,135.300 343.229 M209.940 342.279 C 206.797 344.229,208.224 351.424,212.016 352.745 C 216.035 354.147,218.349 350.732,217.154 345.160 C 216.470 341.968,212.802 340.503,209.940 342.279 M273.400 342.338 C 272.740 342.742,271.525 343.822,270.700 344.737 C 265.813 350.162,273.569 355.986,278.903 350.897 C 283.105 346.888,278.265 339.359,273.400 342.338 M231.539 370.514 C 232.205 371.064,231.930 432.630,231.259 433.301 C 229.453 435.107,225.200 434.397,225.200 432.290 C 225.200 432.069,224.933 431.688,224.608 431.444 C 224.216 431.150,223.866 429.646,223.575 427.000 C 222.970 421.517,222.800 421.749,222.800 428.053 C 222.800 431.511,222.961 433.601,223.250 433.890 C 223.527 434.167,223.597 434.892,223.431 435.773 C 223.123 437.416,222.353 437.430,219.466 435.843 C 218.622 435.379,217.362 434.685,216.666 434.301 C 215.917 433.887,214.550 433.601,213.319 433.601 C 211.262 433.600,209.277 433.001,208.706 432.208 C 208.544 431.984,208.412 418.120,208.412 401.400 C 208.412 369.699,208.389 370.166,210.000 369.940 C 212.669 369.566,230.982 370.053,231.539 370.514 M177.319 370.733 C 177.889 371.206,177.968 373.324,178.023 389.733 C 178.057 399.890,178.208 413.330,178.359 419.600 C 178.683 433.135,178.636 433.363,175.462 433.448 C 174.420 433.476,173.462 433.605,173.333 433.734 C 172.882 434.184,170.810 432.778,170.621 431.893 C 170.194 429.891,169.554 416.654,169.649 411.800 C 169.764 405.937,169.373 404.353,168.239 406.084 C 167.751 406.829,167.676 407.347,167.951 408.071 C 168.665 409.949,168.527 427.378,167.769 431.098 C 167.486 432.484,165.310 433.158,160.704 433.287 L 156.643 433.400 155.744 431.813 C 155.222 430.891,154.728 429.131,154.566 427.613 C 154.412 426.176,154.011 424.580,153.675 424.066 L 153.064 423.133 152.546 424.066 C 152.261 424.580,152.022 425.864,152.014 426.920 C 151.984 431.049,150.523 432.214,144.991 432.522 C 142.796 432.644,140.534 432.862,139.965 433.006 L 138.929 433.269 138.666 425.134 C 138.521 420.660,138.402 406.686,138.401 394.081 L 138.400 371.161 139.700 370.588 C 141.538 369.778,176.330 369.911,177.319 370.733 M201.819 370.949 C 202.314 371.656,202.400 376.242,202.400 402.075 C 202.400 436.869,202.613 434.742,199.030 435.762 C 192.782 437.541,189.036 436.682,190.974 433.915 C 191.645 432.957,191.873 424.904,191.339 421.009 C 190.931 418.028,190.032 420.133,190.014 424.113 C 190.006 425.825,189.757 427.808,189.459 428.519 C 189.162 429.231,188.793 430.651,188.640 431.674 C 188.298 433.954,187.682 434.527,185.930 434.195 C 182.409 433.528,182.518 434.402,182.427 406.000 C 182.383 392.250,182.271 379.110,182.177 376.800 C 182.078 374.359,182.189 372.047,182.441 371.279 L 182.876 369.958 192.057 370.039 C 200.845 370.117,201.264 370.156,201.819 370.949 M275.157 370.548 C 276.199 371.804,275.911 427.405,274.848 430.110 C 274.329 431.432,274.468 431.386,269.309 431.973 C 263.782 432.602,262.005 431.435,262.001 427.176 C 261.998 423.191,260.387 423.282,259.863 427.298 C 259.204 432.354,257.743 433.587,252.400 433.593 C 246.810 433.600,246.250 433.024,245.802 426.800 C 245.354 420.579,245.015 420.046,244.476 424.714 C 244.214 426.977,244.000 429.409,244.000 430.118 C 244.000 431.423,242.473 433.560,241.484 433.639 C 238.240 433.899,236.581 433.402,235.999 431.997 C 235.378 430.498,235.856 371.295,236.496 370.500 C 237.115 369.730,274.517 369.777,275.157 370.548 M294.146 370.466 C 301.434 370.491,301.839 370.591,301.428 372.257 C 301.274 372.886,300.934 374.718,300.673 376.329 C 300.040 380.250,297.622 381.099,297.594 377.411 C 297.585 376.226,296.984 375.378,296.597 376.004 C 296.220 376.615,296.337 388.028,296.743 390.200 L 297.042 391.800 297.335 389.600 C 297.930 385.134,298.049 384.795,299.240 384.179 C 300.916 383.312,301.515 381.790,301.756 377.782 C 301.910 375.216,302.144 374.084,302.587 373.760 C 302.926 373.512,303.401 372.744,303.642 372.052 C 304.198 370.457,304.710 370.342,310.600 370.484 L 315.400 370.600 315.395 378.700 C 315.393 383.155,315.348 396.335,315.295 407.990 L 315.200 429.179 314.100 429.728 C 313.308 430.123,311.930 430.226,309.183 430.095 C 305.524 429.919,305.315 429.955,304.125 430.956 C 302.681 432.171,301.419 432.259,298.383 431.358 C 295.989 430.647,295.084 430.711,288.093 432.080 C 281.267 433.417,282.009 437.141,281.995 401.443 C 281.987 380.204,282.111 371.348,282.424 370.971 C 282.815 370.500,286.526 370.006,287.297 370.322 C 287.461 370.389,290.542 370.454,294.146 370.466 M93.583 371.356 C 94.024 372.515,94.216 429.483,93.783 430.546 C 93.513 431.208,93.181 431.262,90.805 431.028 C 86.620 430.616,79.516 430.698,78.268 431.173 C 76.524 431.838,75.931 431.282,76.739 429.740 C 77.103 429.047,77.736 427.832,78.146 427.040 C 78.556 426.248,79.042 425.600,79.226 425.600 C 79.716 425.600,81.972 422.205,82.486 420.695 C 83.065 418.994,84.775 416.508,86.853 414.345 C 90.049 411.018,91.313 403.047,89.255 399.194 C 87.014 394.997,86.916 392.131,88.924 389.436 C 91.718 385.684,92.000 384.791,92.000 379.678 C 92.000 375.917,91.872 374.792,91.400 374.400 C 90.671 373.795,90.595 370.950,91.300 370.665 C 92.436 370.207,93.239 370.450,93.583 371.356 M109.842 370.706 C 110.086 370.868,110.409 371.675,110.560 372.500 C 110.762 373.597,111.036 374.000,111.580 374.000 C 112.230 374.000,112.325 374.340,112.337 376.700 C 112.357 380.978,113.117 383.260,114.800 384.094 C 116.165 384.771,116.210 384.870,116.621 388.094 L 117.042 391.400 117.537 388.672 C 117.827 387.077,117.923 384.967,117.768 383.594 C 117.389 380.247,117.910 375.200,118.634 375.200 C 119.033 375.200,119.181 374.757,119.136 373.700 C 119.075 372.278,119.064 372.266,118.913 373.462 C 118.796 374.395,118.503 374.788,117.791 374.967 C 116.986 375.169,116.783 375.535,116.564 377.187 C 116.019 381.292,114.115 381.150,113.596 376.966 C 113.408 375.455,113.063 374.154,112.828 374.076 C 112.300 373.900,112.276 372.015,112.791 371.200 C 113.111 370.695,114.639 370.600,122.468 370.600 L 131.765 370.600 132.064 372.000 C 132.743 375.172,132.442 430.962,131.741 431.963 C 131.007 433.011,130.419 432.993,124.600 431.748 C 120.823 430.940,117.386 430.895,114.551 431.616 C 112.587 432.116,112.413 432.091,110.365 431.020 C 108.324 429.952,108.065 429.915,104.520 430.175 C 100.961 430.436,100.772 430.409,99.851 429.487 L 98.891 428.527 98.848 406.964 C 98.824 395.104,98.686 382.187,98.542 378.261 C 98.326 372.367,98.378 371.060,98.840 370.767 C 99.513 370.341,109.212 370.287,109.842 370.706 M322.337 370.662 C 323.355 370.934,323.355 370.908,322.450 376.000 C 321.443 381.659,321.983 384.756,324.653 388.656 C 326.872 391.897,327.052 396.336,325.062 398.760 C 324.778 399.106,324.547 401.586,324.458 405.254 L 324.313 411.188 326.996 413.967 C 329.344 416.399,331.994 420.564,331.998 421.828 C 331.999 422.063,332.602 422.963,333.338 423.828 C 334.074 424.693,335.156 426.165,335.743 427.100 C 336.330 428.035,336.988 428.800,337.205 428.800 C 337.617 428.800,337.764 430.902,337.379 431.288 C 337.257 431.409,336.399 431.281,335.472 431.002 C 334.012 430.562,325.190 430.697,323.400 431.185 C 319.860 432.152,319.978 433.217,319.995 400.542 C 320.011 368.774,319.914 370.013,322.337 370.662 M329.708 377.701 C 329.150 378.318,328.999 378.341,328.724 377.849 C 328.159 376.841,328.746 375.960,329.620 376.505 C 330.317 376.941,330.323 377.022,329.708 377.701 M85.366 377.745 C 85.123 378.377,85.070 378.375,84.587 377.714 C 84.201 377.186,84.186 376.932,84.531 376.719 C 85.178 376.319,85.678 376.932,85.366 377.745 M74.032 391.724 C 78.494 393.132,80.364 394.705,82.216 398.606 C 85.316 405.139,82.670 414.000,77.619 414.000 C 72.516 414.000,68.756 416.973,65.476 423.603 L 63.400 427.800 60.200 428.042 C 56.219 428.343,55.309 427.898,53.858 424.939 C 52.429 422.026,53.105 417.582,55.200 416.115 C 55.640 415.807,56.000 415.302,56.000 414.993 C 56.000 414.684,56.323 414.109,56.718 413.716 C 57.988 412.450,58.463 410.910,57.676 410.607 C 57.262 410.447,56.845 410.596,56.600 410.990 C 56.380 411.344,55.522 412.365,54.692 413.258 C 53.863 414.152,52.713 415.689,52.136 416.673 C 49.524 421.131,49.768 412.350,52.461 405.000 C 53.256 402.830,53.339 401.193,52.682 400.678 C 51.071 399.418,49.783 395.228,50.811 394.593 C 51.037 394.454,52.032 394.731,53.021 395.210 C 55.321 396.323,56.403 396.052,58.084 393.939 C 61.069 390.189,66.692 389.408,74.032 391.724 M353.643 391.774 C 354.656 392.407,355.805 393.518,356.195 394.242 C 357.041 395.814,358.772 396.369,360.116 395.499 C 363.224 393.487,365.418 396.061,362.593 398.406 C 362.267 398.676,362.000 399.140,362.000 399.435 C 362.000 399.730,361.640 400.165,361.200 400.400 C 360.114 400.981,360.113 403.302,361.198 404.312 C 361.681 404.762,362.098 405.834,362.254 407.028 C 362.396 408.112,362.783 409.535,363.113 410.190 C 363.775 411.502,363.919 414.526,363.438 416.999 L 363.126 418.599 362.514 417.399 C 362.177 416.740,361.057 415.210,360.023 414.000 C 358.990 412.790,358.028 411.485,357.885 411.100 C 357.607 410.352,356.917 410.211,356.092 410.735 C 355.704 410.981,355.819 411.383,356.574 412.429 C 357.119 413.183,357.826 414.367,358.145 415.059 C 358.464 415.752,358.993 416.472,359.320 416.659 C 360.935 417.585,361.329 423.917,359.900 425.981 C 358.271 428.334,357.342 428.631,353.738 427.951 L 350.603 427.360 348.687 423.580 C 345.547 417.388,342.119 414.503,337.429 414.105 C 332.367 413.675,328.491 406.104,330.852 401.259 C 331.243 400.457,331.942 398.900,332.405 397.800 C 333.660 394.818,336.109 392.493,338.347 392.157 C 339.341 392.008,341.065 391.550,342.177 391.139 C 345.439 389.935,351.209 390.255,353.643 391.774 M188.812 411.300 C 188.805 412.565,188.875 413.600,188.967 413.600 C 190.318 413.600,190.459 411.816,189.269 409.767 C 188.905 409.138,188.822 409.415,188.812 411.300 M117.844 420.258 C 116.948 420.744,116.813 420.963,117.244 421.236 C 118.338 421.928,119.200 421.648,119.200 420.600 C 119.200 420.050,119.155 419.607,119.100 419.616 C 119.045 419.625,118.480 419.914,117.844 420.258 M294.944 420.202 C 294.537 421.263,295.068 421.914,296.168 421.704 C 297.484 421.452,297.493 420.662,296.187 420.067 C 295.359 419.690,295.131 419.714,294.944 420.202 M76.480 442.480 C 76.216 442.744,75.997 443.149,75.993 443.380 C 75.983 443.938,73.857 447.054,72.711 448.192 C 71.447 449.445,70.012 451.331,70.005 451.746 C 70.002 451.936,69.100 453.130,68.000 454.400 C 66.900 455.670,66.000 456.896,66.000 457.125 C 66.000 457.354,65.550 457.896,65.000 458.329 C 64.450 458.761,64.000 459.295,64.000 459.515 C 64.000 460.003,59.174 466.000,58.782 466.000 C 58.628 466.000,57.894 467.007,57.151 468.237 C 56.408 469.467,54.900 471.618,53.800 473.016 C 52.700 474.413,51.382 476.250,50.872 477.096 C 50.361 477.943,49.134 479.517,48.145 480.594 C 47.156 481.672,46.151 482.924,45.912 483.376 C 45.674 483.829,44.696 485.201,43.739 486.425 C 42.783 487.649,42.000 488.773,42.000 488.924 C 42.000 489.075,41.264 489.957,40.365 490.884 C 39.466 491.810,38.392 493.205,37.977 493.984 C 37.563 494.763,36.499 496.203,35.612 497.186 C 34.725 498.168,34.000 499.139,34.000 499.343 C 34.000 499.548,33.623 500.095,33.163 500.558 C 31.910 501.818,28.000 507.139,28.000 507.584 C 28.000 507.797,27.685 508.142,27.300 508.351 C 25.739 509.195,25.080 511.070,26.093 511.785 C 27.053 512.462,28.400 511.530,28.400 510.189 C 28.400 509.902,28.554 509.607,28.743 509.533 C 29.617 509.193,34.291 503.389,35.862 500.692 C 36.485 499.622,37.787 498.004,40.300 495.173 C 41.455 493.871,42.400 492.573,42.400 492.287 C 42.400 492.001,43.209 490.874,44.198 489.783 C 45.187 488.692,45.997 487.671,45.998 487.514 C 45.999 487.356,46.495 486.698,47.100 486.052 C 47.705 485.405,48.650 484.109,49.200 483.171 C 49.750 482.233,50.650 480.971,51.200 480.366 C 52.890 478.509,54.155 476.942,55.200 475.411 C 55.750 474.605,57.100 472.806,58.200 471.412 C 59.300 470.019,60.560 468.284,61.000 467.559 C 62.442 465.179,62.584 464.988,64.200 463.252 C 65.080 462.306,66.070 461.031,66.400 460.418 C 67.334 458.683,68.482 457.058,69.239 456.400 C 70.379 455.410,74.400 450.330,74.400 449.880 C 74.400 449.650,75.260 448.458,76.312 447.231 C 78.727 444.413,79.699 442.884,79.393 442.389 C 79.055 441.842,77.056 441.904,76.480 442.480 M335.653 442.359 C 334.928 442.818,335.658 445.124,336.910 446.331 C 338.094 447.472,339.452 449.130,340.408 450.600 C 340.837 451.260,341.416 452.150,341.694 452.579 C 341.972 453.007,343.505 454.949,345.100 456.894 C 346.695 458.839,348.002 460.649,348.004 460.915 C 348.006 461.182,348.861 462.334,349.904 463.476 C 352.330 466.133,353.600 467.812,353.600 468.363 C 353.600 468.603,354.345 469.564,355.255 470.500 C 356.165 471.435,357.333 472.830,357.851 473.600 C 359.539 476.113,360.162 476.968,361.994 479.288 C 364.785 482.824,365.436 483.720,366.001 484.800 C 366.289 485.350,367.555 487.060,368.814 488.600 C 370.074 490.140,371.401 491.985,371.762 492.700 C 372.124 493.415,372.565 494.000,372.741 494.000 C 373.164 494.000,378.000 499.967,378.000 500.489 C 378.000 500.712,378.495 501.488,379.100 502.214 C 379.705 502.940,380.830 504.393,381.600 505.444 C 382.370 506.494,383.360 507.724,383.800 508.177 C 384.240 508.630,385.151 509.698,385.825 510.551 C 386.809 511.796,387.222 512.047,387.925 511.824 C 389.152 511.434,389.019 510.769,387.400 509.200 C 386.630 508.454,386.000 507.691,386.000 507.504 C 386.000 507.318,385.235 506.165,384.300 504.941 C 383.365 503.718,382.018 501.881,381.306 500.859 C 380.594 499.836,379.280 498.171,378.387 497.158 C 377.494 496.145,376.149 494.345,375.397 493.158 C 374.645 491.971,373.269 490.155,372.338 489.123 C 371.408 488.090,370.385 486.746,370.065 486.136 C 369.745 485.526,369.240 484.783,368.942 484.485 C 368.644 484.187,368.400 483.813,368.400 483.655 C 368.400 483.496,367.580 482.474,366.578 481.383 C 365.575 480.292,364.491 478.905,364.167 478.300 C 363.844 477.695,363.426 477.200,363.238 477.200 C 363.051 477.200,362.661 476.615,362.373 475.900 C 362.085 475.185,361.106 473.700,360.199 472.600 C 359.291 471.500,357.891 469.610,357.088 468.400 C 356.285 467.190,354.616 465.120,353.379 463.800 C 352.143 462.480,350.856 460.874,350.519 460.230 C 350.183 459.587,348.585 457.427,346.968 455.430 C 342.971 450.492,342.400 449.729,342.400 449.324 C 342.400 449.132,341.500 448.031,340.400 446.878 C 339.300 445.725,338.400 444.555,338.400 444.280 C 338.400 442.783,336.776 441.647,335.653 442.359 M208.244 462.629 C 207.999 463.268,208.579 466.346,209.219 467.800 C 209.413 468.240,209.764 470.986,209.999 473.902 C 210.425 479.178,210.648 480.400,211.265 480.820 C 211.443 480.941,211.763 484.361,211.977 488.420 C 212.191 492.479,212.627 496.880,212.947 498.200 C 213.266 499.520,213.656 502.190,213.814 504.134 C 213.971 506.078,214.322 508.508,214.592 509.534 L 215.084 511.400 215.642 509.600 C 216.369 507.255,216.217 497.553,215.404 494.415 C 215.084 493.182,214.537 489.569,214.188 486.386 C 213.823 483.061,213.307 480.223,212.976 479.714 C 212.639 479.196,212.390 477.785,212.375 476.314 C 212.351 473.945,212.019 470.220,211.383 465.200 C 211.030 462.418,208.972 460.732,208.244 462.629 M229.423 478.729 C 228.356 478.816,228.024 478.968,228.396 479.198 C 228.905 479.512,274.802 479.275,275.160 478.956 C 275.364 478.774,231.533 478.557,229.423 478.729 M158.800 479.234 C 170.790 479.400,183.030 479.397,186.000 479.227 C 189.390 479.033,181.277 478.921,164.200 478.925 L 137.000 478.932 158.800 479.234 M128.249 490.152 C 127.892 490.905,127.600 492.185,127.600 492.997 C 127.600 493.868,127.272 494.891,126.800 495.491 C 126.360 496.050,125.994 496.889,125.987 497.354 C 125.981 497.819,125.532 499.100,124.991 500.200 C 124.450 501.300,124.006 502.428,124.004 502.708 C 124.002 502.987,123.550 504.503,123.000 506.077 C 122.450 507.651,121.999 509.403,121.998 509.970 C 121.996 510.536,121.745 511.480,121.438 512.067 C 120.910 513.079,120.935 513.147,121.925 513.396 C 123.088 513.688,123.881 512.937,124.244 511.200 C 124.359 510.650,124.807 509.390,125.239 508.400 C 125.671 507.410,126.188 505.579,126.387 504.330 C 126.585 503.082,127.014 501.546,127.340 500.916 C 127.665 500.287,128.065 499.059,128.228 498.186 C 128.392 497.314,128.851 496.150,129.249 495.600 C 130.184 494.307,130.857 491.253,130.396 490.393 C 129.540 488.793,128.927 488.724,128.249 490.152 M284.081 489.895 C 283.148 491.217,283.619 493.881,285.123 495.792 C 285.605 496.406,286.000 497.471,286.000 498.160 C 286.000 498.848,286.337 500.040,286.748 500.808 C 287.160 501.576,287.626 503.013,287.785 504.002 C 287.943 504.991,288.507 506.734,289.037 507.875 C 289.566 509.017,290.000 510.313,290.000 510.756 C 290.000 512.086,290.886 513.653,291.504 513.415 C 291.813 513.297,292.210 513.200,292.386 513.200 C 292.823 513.200,291.790 507.933,291.078 506.530 C 290.762 505.908,290.385 504.584,290.240 503.587 C 290.096 502.590,289.643 501.225,289.235 500.554 C 288.827 499.882,288.369 498.599,288.217 497.702 C 288.066 496.805,287.595 495.757,287.171 495.374 C 286.727 494.972,286.399 494.150,286.398 493.438 C 286.392 490.008,285.242 488.251,284.081 489.895 M123.867 519.055 C 123.830 519.086,109.141 519.215,91.224 519.342 C 59.723 519.566,58.623 519.599,57.876 520.346 C 56.081 522.141,56.897 522.195,86.930 522.264 C 120.573 522.342,117.656 521.885,115.996 526.812 C 115.162 529.286,115.366 530.471,116.714 530.988 C 117.357 531.235,118.400 528.933,118.400 527.267 C 118.400 526.629,118.715 525.677,119.100 525.149 C 119.485 524.622,119.999 523.833,120.242 523.395 C 120.942 522.135,122.440 522.081,158.184 522.035 C 193.549 521.990,192.847 522.030,192.167 520.102 L 191.779 519.000 157.857 519.000 C 139.200 519.000,123.904 519.025,123.867 519.055 M232.289 519.928 C 231.111 521.971,230.742 521.945,262.832 522.094 C 292.616 522.232,294.000 522.297,294.000 523.565 C 294.000 523.939,294.450 524.855,295.000 525.600 C 295.562 526.362,296.000 527.500,296.000 528.201 C 296.000 530.277,297.003 531.233,297.977 530.085 C 298.710 529.220,298.719 529.066,298.133 527.285 C 296.352 521.866,293.290 522.389,327.400 522.285 C 350.572 522.214,355.138 522.108,355.862 521.628 L 356.724 521.055 355.750 520.289 C 354.816 519.555,353.631 519.516,327.288 519.361 C 312.170 519.271,284.770 519.085,266.400 518.947 L 233.000 518.695 232.289 519.928 " stroke="none" fill="#b8870b" fill-rule="evenodd"></path></g></svg>